<?xml version="1.0" standalone="no"?>
<!DOCTYPE svg PUBLIC "-//W3C//DTD SVG 20010904//EN"
 "http://www.w3.org/TR/2001/REC-SVG-20010904/DTD/svg10.dtd">
<svg version="1.0" xmlns="http://www.w3.org/2000/svg"
 width="300.000000pt" height="215.000000pt" viewBox="0 0 300.000000 215.000000"
 preserveAspectRatio="xMidYMid meet">

<g transform="translate(0.000000,215.000000) scale(0.100000,-0.100000)"
fill="#000000" stroke="none">
<path d="M2061 2104 c-28 -29 -41 -52 -49 -91 -22 -101 -44 -359 -40 -476 3
-111 5 -120 27 -138 13 -10 38 -19 56 -19 27 0 42 10 85 57 100 109 287 369
316 438 38 92 -4 170 -126 231 -44 22 -72 29 -142 32 l-88 4 -39 -38z"/>
<path d="M1489 2107 c-102 -29 -202 -114 -215 -183 -5 -29 -1 -48 19 -89 36
-74 173 -243 298 -367 118 -118 136 -127 186 -84 27 24 28 27 26 111 -2 47
-12 145 -22 218 -39 257 -67 351 -114 382 -34 22 -121 28 -178 12z"/>
<path d="M2695 1682 c-85 -40 -307 -222 -419 -343 -50 -54 -66 -79 -66 -101 0
-43 40 -78 87 -78 116 1 434 49 541 82 38 11 77 31 93 47 97 98 -18 379 -166
406 -19 3 -45 -2 -70 -13z"/>
<path d="M1857 1244 c-4 -4 -7 -27 -7 -50 0 -42 -1 -43 -27 -38 -17 3 -36 -1
-48 -10 -17 -12 -20 -28 -23 -115 -5 -137 3 -150 93 -149 l65 0 -2 182 c-3
174 -4 181 -23 184 -12 2 -24 0 -28 -4z m-9 -222 c2 -77 0 -93 -13 -98 -9 -4
-19 -3 -23 0 -12 13 -15 153 -2 175 22 43 35 17 38 -77z"/>
<path d="M374 1196 c-3 -19 -12 -37 -20 -40 -16 -6 -19 -36 -4 -36 6 0 10 -38
10 -92 0 -116 12 -142 63 -146 32 -3 37 0 37 17 0 14 -6 21 -20 21 -19 0 -20
7 -20 100 0 93 1 100 20 100 13 0 20 7 20 20 0 13 -7 20 -20 20 -16 0 -20 7
-20 35 0 28 -4 35 -20 35 -14 0 -21 -9 -26 -34z"/>
<path d="M0 1051 l0 -171 66 0 c57 0 65 2 62 18 -2 11 -14 18 -35 20 l-32 3
-3 147 -3 147 -27 3 -28 3 0 -170z"/>
<path d="M196 1198 c-12 -52 -56 -293 -56 -305 0 -7 11 -13 25 -13 20 0 27 6
32 30 5 25 10 30 35 30 24 0 29 -5 35 -30 4 -24 11 -30 32 -30 l27 0 -31 168
-31 167 -31 3 c-27 3 -33 -1 -37 -20z m53 -190 c1 -22 -4 -28 -20 -28 -20 0
-21 3 -14 63 4 34 10 67 13 72 7 10 20 -58 21 -107z"/>
<path d="M1197 1213 c-4 -3 -7 -80 -7 -170 l0 -163 30 0 30 0 0 80 0 80 30 0
c23 0 30 4 30 20 0 16 -7 20 -30 20 -29 0 -30 1 -30 50 l0 50 40 0 c33 0 40 3
40 20 0 18 -7 20 -63 20 -35 0 -67 -3 -70 -7z"/>
<path d="M521 1138 c-27 -28 -35 -74 -28 -154 6 -80 24 -104 78 -104 43 0 69
21 69 56 0 31 -36 33 -45 3 -9 -28 -36 -20 -48 14 -14 44 -3 57 47 57 42 0 44
1 48 34 5 44 -7 88 -29 103 -26 20 -70 15 -92 -9z m67 -62 c3 -34 1 -37 -20
-34 -18 2 -22 9 -20 28 6 63 35 67 40 6z"/>
<path d="M700 1140 c-11 -11 -20 -31 -20 -45 0 -34 47 -37 52 -3 2 13 11 24
21 26 14 3 17 -4 17 -32 0 -29 -5 -38 -28 -50 -43 -22 -66 -54 -66 -91 0 -53
16 -64 91 -64 l65 1 -4 125 c-3 110 -5 126 -22 139 -29 21 -82 18 -106 -6z
m70 -175 c0 -38 -3 -45 -20 -45 -15 0 -20 7 -20 27 0 22 24 63 37 63 1 0 3
-20 3 -45z"/>
<path d="M880 1020 l0 -140 25 0 25 0 0 109 c0 83 3 111 15 121 28 23 35 0 35
-116 l0 -114 25 0 25 0 0 108 c0 107 7 132 37 132 10 0 13 -28 13 -120 l0
-120 30 0 30 0 0 118 c0 90 -4 123 -16 140 -16 24 -44 28 -74 12 -14 -8 -25
-7 -40 2 -15 10 -26 10 -52 0 -21 -8 -34 -9 -36 -2 -2 5 -12 10 -23 10 -18 0
-19 -9 -19 -140z"/>
<path d="M1385 1140 c-36 -40 -42 -185 -9 -237 11 -17 24 -23 52 -23 67 0 82
27 82 143 0 70 -3 89 -21 111 -25 32 -77 36 -104 6z m69 -36 c3 -9 6 -46 6
-84 0 -76 -6 -100 -25 -100 -19 0 -25 24 -25 100 0 76 6 100 25 100 7 0 16 -7
19 -16z"/>
<path d="M1581 1141 c-37 -37 -40 -185 -6 -237 12 -19 24 -24 55 -24 51 0 72
30 78 111 8 112 -18 169 -78 169 -16 0 -39 -9 -49 -19z m72 -62 c11 -41 4
-136 -10 -150 -23 -23 -33 4 -33 90 0 48 3 91 7 95 13 13 27 -1 36 -35z"/>
<path d="M1969 1139 c-30 -30 -20 -78 30 -141 45 -56 51 -78 21 -78 -13 0 -22
9 -26 25 -9 35 -44 34 -44 -1 0 -47 17 -64 64 -64 88 0 99 66 26 154 -43 51
-53 90 -22 84 9 -2 18 -13 20 -26 2 -14 10 -22 23 -22 27 0 27 65 0 80 -31 16
-69 12 -92 -11z"/>
<path d="M2313 993 c-40 -3 -56 -9 -68 -26 -18 -26 -19 -76 -2 -97 52 -65 348
-288 451 -340 116 -59 193 -27 262 110 38 76 45 199 14 248 -38 62 -125 84
-400 102 -80 5 -158 9 -175 8 -16 -1 -54 -3 -82 -5z"/>
<path d="M2060 753 c-41 -15 -50 -35 -50 -109 0 -152 59 -494 99 -571 27 -55
76 -77 151 -70 143 13 280 119 280 218 0 65 -111 217 -295 408 -116 119 -145
139 -185 124z"/>
<path d="M326 743 c-10 -10 -7 -93 4 -93 6 0 10 12 11 28 l1 27 10 -27 c10
-30 28 -38 28 -13 0 21 18 19 23 -2 3 -10 5 6 6 35 1 56 -13 70 -24 22 -9 -41
-22 -46 -30 -10 -7 31 -18 44 -29 33z"/>
<path d="M587 744 c-11 -11 -8 -94 3 -94 6 0 10 7 10 15 0 8 4 15 9 15 5 0 11
-7 15 -15 3 -8 10 -15 16 -15 6 0 8 5 4 11 -4 7 -7 28 -8 48 -1 28 -5 37 -21
39 -12 2 -24 0 -28 -4z m35 -36 c-6 -6 -15 -9 -18 -5 -4 3 -4 14 0 23 5 13 9
15 18 6 9 -9 9 -15 0 -24z"/>
<path d="M1200 700 c0 -27 5 -50 10 -50 6 0 10 23 10 50 0 28 -4 50 -10 50 -5
0 -10 -22 -10 -50z"/>
<path d="M1260 700 c0 -27 5 -50 10 -50 6 0 10 23 10 50 0 28 -4 50 -10 50 -5
0 -10 -22 -10 -50z"/>
<path d="M1455 738 c-3 -7 -6 -29 -7 -48 -3 -33 -1 -35 29 -38 27 -3 31 -1 26
17 -3 12 -9 21 -14 21 -4 0 -7 12 -6 26 2 28 -20 45 -28 22z m19 -63 c3 -8 1
-15 -4 -15 -6 0 -10 7 -10 15 0 8 2 15 4 15 2 0 6 -7 10 -15z"/>
<path d="M1614 737 c-3 -8 -4 -30 -2 -49 2 -28 7 -34 31 -36 20 -3 27 1 27 14
0 14 -3 14 -15 4 -21 -17 -38 -1 -33 31 2 18 9 24 26 23 28 -1 23 20 -6 24
-13 2 -25 -3 -28 -11z"/>
<path d="M686 702 c-10 -30 4 -53 28 -50 31 4 30 62 -1 66 -14 2 -23 -3 -27
-16z m39 -17 c0 -10 -6 -20 -12 -22 -8 -3 -13 5 -13 22 0 17 5 25 13 23 6 -3
12 -13 12 -23z"/>
<path d="M780 685 c0 -19 5 -35 10 -35 6 0 10 14 10 30 0 41 20 38 21 -2 l1
-33 9 33 c5 17 14 32 19 32 5 0 11 -15 13 -32 4 -32 4 -32 5 5 l2 37 -45 0
c-45 0 -45 0 -45 -35z"/>
<path d="M920 711 c0 -6 7 -8 15 -5 8 4 15 2 15 -4 0 -5 -7 -12 -15 -16 -25
-9 -18 -36 11 -36 23 0 25 3 22 33 -2 24 -8 33 -25 35 -13 2 -23 -1 -23 -7z
m30 -41 c0 -5 -5 -10 -11 -10 -5 0 -7 5 -4 10 3 6 8 10 11 10 2 0 4 -4 4 -10z"/>
<path d="M1010 685 c0 -19 5 -35 10 -35 6 0 10 14 10 30 0 40 18 38 23 -2 4
-32 4 -32 5 5 2 33 0 37 -23 37 -22 0 -25 -4 -25 -35z"/>
<path d="M1117 714 c-4 -4 -7 -20 -7 -36 0 -24 4 -28 28 -27 l27 0 -25 11 -25
11 23 5 c15 2 22 9 20 20 -3 18 -29 27 -41 16z m23 -14 c0 -5 -5 -10 -11 -10
-5 0 -7 5 -4 10 3 6 8 10 11 10 2 0 4 -4 4 -10z"/>
<path d="M1327 713 c-11 -10 -8 -63 3 -63 6 0 10 16 10 35 0 36 -2 40 -13 28z"/>
<path d="M1714 706 c-11 -29 0 -51 26 -51 21 0 25 5 25 30 0 24 -5 31 -23 33
-13 2 -24 -3 -28 -12z m41 -21 c0 -10 -6 -20 -12 -22 -8 -3 -13 5 -13 22 0 17
5 25 13 23 6 -3 12 -13 12 -23z"/>
</g>
</svg>
